<svg width="364" height="192" viewBox="0 0 364 192" fill="none" xmlns="http://www.w3.org/2000/svg">
<circle cx="314" cy="124" r="64" fill="white"/>
<path d="M330.429 0C352.019 0 369.271 17.9656 368.397 39.5381L366.379 89.333C354.998 72.2536 335.564 61 313.5 61C278.43 61 250 89.4299 250 124.5C250 149.302 264.22 170.782 284.951 181.234L172.276 185.021L130.711 187.016L39.7383 191.181C18.092 192.172 0.00016934 174.89 0 153.221V38C0 17.0132 17.0132 0 38 0H330.429ZM317 87C336.882 87 353 103.118 353 123C353 142.882 336.882 159 317 159C297.118 159 281 142.882 281 123C281 103.118 297.118 87 317 87Z" fill="#477A72"/>
<circle cx="254" cy="156" r="13" fill="#FF7491"/>
<circle cx="289" cy="63" r="25" fill="#FFD06C"/>
<circle cx="238.5" cy="84.5" r="18.5" fill="#B7E3DD"/>
</svg>
